<?xml version="1.0" encoding="UTF-8"?><svg id="Layer_2" xmlns="http://www.w3.org/2000/svg" viewBox="0 0 51.48 51.48"><defs><style>.cls-1{fill:#fff;}.cls-2{fill:#0b1a2f;}</style></defs><g id="Layer_1-2"><rect class="cls-1" width="51.48" height="51.48" rx="4.02" ry="4.02"/><polygon class="cls-2" points="18.76 32.73 18.76 42 14.1 42 14.1 37.39 9.49 37.39 9.49 32.73 18.76 32.73"/><polygon class="cls-2" points="42 32.73 42 37.39 37.34 37.39 37.34 42 32.73 42 32.73 32.73 42 32.73"/><polygon class="cls-2" points="42 14.15 42 18.76 32.73 18.76 32.73 9.49 37.34 9.49 37.34 14.15 42 14.15"/><polygon class="cls-2" points="18.76 9.49 18.76 18.76 9.49 18.76 9.49 14.15 14.1 14.15 14.1 9.49 18.76 9.49"/><rect class="cls-2" x="23.41" y="28.09" width="4.66" height="9.27"/><rect class="cls-2" x="28.06" y="23.43" width="9.27" height="4.66"/><rect class="cls-2" x="23.41" y="14.12" width="4.66" height="9.31"/><rect class="cls-2" x="14.14" y="23.43" width="9.27" height="4.66"/><rect class="cls-2" x="4.82" y="23.43" width="4.66" height="4.66"/><rect class="cls-2" x="23.41" y="42.02" width="4.66" height="4.66"/><rect class="cls-2" x="42" y="23.43" width="4.66" height="4.66"/><rect class="cls-2" x="23.41" y="4.81" width="4.66" height="4.66"/></g></svg>