<svg width="1802" height="1202" viewBox="0 0 1802 1202" fill="none" xmlns="http://www.w3.org/2000/svg">
<rect x="1" y="1" width="100" height="100" fill="white" stroke="#E2E8F0"/>
<rect x="101" y="1" width="100" height="100" fill="white" stroke="#E2E8F0"/>
<rect x="201" y="1" width="100" height="100" fill="white" stroke="#E2E8F0"/>
<rect x="301" y="1" width="100" height="100" fill="white" stroke="#E2E8F0"/>
<rect x="401" y="1" width="100" height="100" fill="white" stroke="#E2E8F0"/>
<rect x="501" y="1" width="100" height="100" fill="white" stroke="#E2E8F0"/>
<rect x="601" y="1" width="100" height="100" fill="white" stroke="#E2E8F0"/>
<rect x="701" y="1" width="100" height="100" fill="#F1F5F9" stroke="#E2E8F0"/>
<rect x="801" y="1" width="100" height="100" fill="white" stroke="#E2E8F0"/>
<rect x="901" y="1" width="100" height="100" fill="white" stroke="#E2E8F0"/>
<rect x="1001" y="1" width="100" height="100" fill="white" stroke="#E2E8F0"/>
<rect x="1101" y="1" width="100" height="100" fill="white" stroke="#E2E8F0"/>
<rect x="1201" y="1" width="100" height="100" fill="white" stroke="#E2E8F0"/>
<rect x="1301" y="1" width="100" height="100" fill="white" stroke="#E2E8F0"/>
<rect x="1401" y="1" width="100" height="100" fill="white" stroke="#E2E8F0"/>
<rect x="1501" y="1" width="100" height="100" fill="white" stroke="#E2E8F0"/>
<rect x="1601" y="1" width="100" height="100" fill="#F1F5F9" stroke="#E2E8F0"/>
<rect x="1701" y="1" width="100" height="100" fill="white" stroke="#E2E8F0"/>
<rect x="1" y="101" width="100" height="100" fill="white" stroke="#E2E8F0"/>
<rect x="101" y="101" width="100" height="100" fill="white" stroke="#E2E8F0"/>
<rect x="201" y="101" width="100" height="100" fill="#F1F5F9" stroke="#E2E8F0"/>
<rect x="301" y="101" width="100" height="100" fill="white" stroke="#E2E8F0"/>
<rect x="401" y="101" width="100" height="100" fill="white" stroke="#E2E8F0"/>
<rect x="501" y="101" width="100" height="100" fill="white" stroke="#E2E8F0"/>
<rect x="601" y="101" width="100" height="100" fill="white" stroke="#E2E8F0"/>
<rect x="701" y="101" width="100" height="100" fill="#F1F5F9" stroke="#E2E8F0"/>
<rect x="801" y="101" width="100" height="100" fill="#F1F5F9" stroke="#E2E8F0"/>
<rect x="901" y="101" width="100" height="100" fill="white" stroke="#E2E8F0"/>
<rect x="1001" y="101" width="100" height="100" fill="white" stroke="#E2E8F0"/>
<rect x="1101" y="101" width="100" height="100" fill="white" stroke="#E2E8F0"/>
<rect x="1201" y="101" width="100" height="100" fill="#F1F5F9" stroke="#E2E8F0"/>
<rect x="1301" y="101" width="100" height="100" fill="white" stroke="#E2E8F0"/>
<rect x="1401" y="101" width="100" height="100" fill="white" stroke="#E2E8F0"/>
<rect x="1501" y="101" width="100" height="100" fill="white" stroke="#E2E8F0"/>
<rect x="1601" y="101" width="100" height="100" fill="white" stroke="#E2E8F0"/>
<rect x="1701" y="101" width="100" height="100" fill="white" stroke="#E2E8F0"/>
<rect x="1" y="201" width="100" height="100" fill="white" stroke="#E2E8F0"/>
<rect x="101" y="201" width="100" height="100" fill="white" stroke="#E2E8F0"/>
<rect x="201" y="201" width="100" height="100" fill="white" stroke="#E2E8F0"/>
<rect x="301" y="201" width="100" height="100" fill="white" stroke="#E2E8F0"/>
<rect x="401" y="201" width="100" height="100" fill="white" stroke="#E2E8F0"/>
<rect x="501" y="201" width="100" height="100" fill="white" stroke="#E2E8F0"/>
<rect x="601" y="201" width="100" height="100" fill="white" stroke="#E2E8F0"/>
<rect x="701" y="201" width="100" height="100" fill="white" stroke="#E2E8F0"/>
<rect x="801" y="201" width="100" height="100" fill="white" stroke="#E2E8F0"/>
<rect x="901" y="201" width="100" height="100" fill="white" stroke="#E2E8F0"/>
<rect x="1001" y="201" width="100" height="100" fill="white" stroke="#E2E8F0"/>
<rect x="1101" y="201" width="100" height="100" fill="white" stroke="#E2E8F0"/>
<rect x="1201" y="201" width="100" height="100" fill="white" stroke="#E2E8F0"/>
<rect x="1301" y="201" width="100" height="100" fill="white" stroke="#E2E8F0"/>
<rect x="1401" y="201" width="100" height="100" fill="white" stroke="#E2E8F0"/>
<rect x="1501" y="201" width="100" height="100" fill="white" stroke="#E2E8F0"/>
<rect x="1601" y="201" width="100" height="100" fill="white" stroke="#E2E8F0"/>
<rect x="1701" y="201" width="100" height="100" fill="white" stroke="#E2E8F0"/>
<rect x="1" y="301" width="100" height="100" fill="white" stroke="#E2E8F0"/>
<rect x="101" y="301" width="100" height="100" fill="white" stroke="#E2E8F0"/>
<rect x="201" y="301" width="100" height="100" fill="white" stroke="#E2E8F0"/>
<rect x="301" y="301" width="100" height="100" fill="white" stroke="#E2E8F0"/>
<rect x="401" y="301" width="100" height="100" fill="#F1F5F9" stroke="#E2E8F0"/>
<rect x="501" y="301" width="100" height="100" fill="white" stroke="#E2E8F0"/>
<rect x="601" y="301" width="100" height="100" fill="white" stroke="#E2E8F0"/>
<rect x="701" y="301" width="100" height="100" fill="white" stroke="#E2E8F0"/>
<rect x="801" y="301" width="100" height="100" fill="white" stroke="#E2E8F0"/>
<rect x="901" y="301" width="100" height="100" fill="white" stroke="#E2E8F0"/>
<rect x="1001" y="301" width="100" height="100" fill="white" stroke="#E2E8F0"/>
<rect x="1101" y="301" width="100" height="100" fill="white" stroke="#E2E8F0"/>
<rect x="1201" y="301" width="100" height="100" fill="white" stroke="#E2E8F0"/>
<rect x="1301" y="301" width="100" height="100" fill="white" stroke="#E2E8F0"/>
<rect x="1401" y="301" width="100" height="100" fill="white" stroke="#E2E8F0"/>
<rect x="1501" y="301" width="100" height="100" fill="#F1F5F9" stroke="#E2E8F0"/>
<rect x="1601" y="301" width="100" height="100" fill="white" stroke="#E2E8F0"/>
<rect x="1701" y="301" width="100" height="100" fill="white" stroke="#E2E8F0"/>
<rect x="1" y="401" width="100" height="100" fill="white" stroke="#E2E8F0"/>
<rect x="101" y="401" width="100" height="100" fill="white" stroke="#E2E8F0"/>
<rect x="201" y="401" width="100" height="100" fill="white" stroke="#E2E8F0"/>
<rect x="301" y="401" width="100" height="100" fill="white" stroke="#E2E8F0"/>
<rect x="401" y="401" width="100" height="100" fill="white" stroke="#E2E8F0"/>
<rect x="501" y="401" width="100" height="100" fill="white" stroke="#E2E8F0"/>
<rect x="601" y="401" width="100" height="100" fill="white" stroke="#E2E8F0"/>
<rect x="701" y="401" width="100" height="100" fill="white" stroke="#E2E8F0"/>
<rect x="801" y="401" width="100" height="100" fill="white" stroke="#E2E8F0"/>
<rect x="901" y="401" width="100" height="100" fill="white" stroke="#E2E8F0"/>
<rect x="1001" y="401" width="100" height="100" fill="white" stroke="#E2E8F0"/>
<rect x="1101" y="401" width="100" height="100" fill="white" stroke="#E2E8F0"/>
<rect x="1201" y="401" width="100" height="100" fill="white" stroke="#E2E8F0"/>
<rect x="1301" y="401" width="100" height="100" fill="white" stroke="#E2E8F0"/>
<rect x="1401" y="401" width="100" height="100" fill="white" stroke="#E2E8F0"/>
<rect x="1501" y="401" width="100" height="100" fill="white" stroke="#E2E8F0"/>
<rect x="1601" y="401" width="100" height="100" fill="#F1F5F9" stroke="#E2E8F0"/>
<rect x="1701" y="401" width="100" height="100" fill="white" stroke="#E2E8F0"/>
<rect x="1" y="501" width="100" height="100" fill="white" stroke="#E2E8F0"/>
<rect x="101" y="501" width="100" height="100" fill="#F1F5F9" stroke="#E2E8F0"/>
<rect x="201" y="501" width="100" height="100" fill="white" stroke="#E2E8F0"/>
<rect x="301" y="501" width="100" height="100" fill="white" stroke="#E2E8F0"/>
<rect x="401" y="501" width="100" height="100" fill="white" stroke="#E2E8F0"/>
<rect x="501" y="501" width="100" height="100" fill="white" stroke="#E2E8F0"/>
<rect x="601" y="501" width="100" height="100" fill="white" stroke="#E2E8F0"/>
<rect x="701" y="501" width="100" height="100" fill="white" stroke="#E2E8F0"/>
<rect x="801" y="501" width="100" height="100" fill="white" stroke="#E2E8F0"/>
<rect x="901" y="501" width="100" height="100" fill="white" stroke="#E2E8F0"/>
<rect x="1001" y="501" width="100" height="100" fill="white" stroke="#E2E8F0"/>
<rect x="1101" y="501" width="100" height="100" fill="white" stroke="#E2E8F0"/>
<rect x="1201" y="501" width="100" height="100" fill="white" stroke="#E2E8F0"/>
<rect x="1301" y="501" width="100" height="100" fill="white" stroke="#E2E8F0"/>
<rect x="1401" y="501" width="100" height="100" fill="white" stroke="#E2E8F0"/>
<rect x="1501" y="501" width="100" height="100" fill="white" stroke="#E2E8F0"/>
<rect x="1601" y="501" width="100" height="100" fill="white" stroke="#E2E8F0"/>
<rect x="1701" y="501" width="100" height="100" fill="white" stroke="#E2E8F0"/>
<rect x="1" y="601" width="100" height="100" fill="white" stroke="#E2E8F0"/>
<rect x="101" y="601" width="100" height="100" fill="white" stroke="#E2E8F0"/>
<rect x="201" y="601" width="100" height="100" fill="#F1F5F9" stroke="#E2E8F0"/>
<rect x="301" y="601" width="100" height="100" fill="white" stroke="#E2E8F0"/>
<rect x="401" y="601" width="100" height="100" fill="white" stroke="#E2E8F0"/>
<rect x="501" y="601" width="100" height="100" fill="white" stroke="#E2E8F0"/>
<rect x="601" y="601" width="100" height="100" fill="white" stroke="#E2E8F0"/>
<rect x="701" y="601" width="100" height="100" fill="white" stroke="#E2E8F0"/>
<rect x="801" y="601" width="100" height="100" fill="white" stroke="#E2E8F0"/>
<rect x="901" y="601" width="100" height="100" fill="#F1F5F9" stroke="#E2E8F0"/>
<rect x="1001" y="601" width="100" height="100" fill="white" stroke="#E2E8F0"/>
<rect x="1101" y="601" width="100" height="100" fill="white" stroke="#E2E8F0"/>
<rect x="1201" y="601" width="100" height="100" fill="white" stroke="#E2E8F0"/>
<rect x="1301" y="601" width="100" height="100" fill="white" stroke="#E2E8F0"/>
<rect x="1401" y="601" width="100" height="100" fill="white" stroke="#E2E8F0"/>
<rect x="1501" y="601" width="100" height="100" fill="white" stroke="#E2E8F0"/>
<rect x="1601" y="601" width="100" height="100" fill="white" stroke="#E2E8F0"/>
<rect x="1701" y="601" width="100" height="100" fill="white" stroke="#E2E8F0"/>
<rect x="1" y="701" width="100" height="100" fill="white" stroke="#E2E8F0"/>
<rect x="101" y="701" width="100" height="100" fill="white" stroke="#E2E8F0"/>
<rect x="201" y="701" width="100" height="100" fill="white" stroke="#E2E8F0"/>
<rect x="301" y="701" width="100" height="100" fill="white" stroke="#E2E8F0"/>
<rect x="401" y="701" width="100" height="100" fill="white" stroke="#E2E8F0"/>
<rect x="501" y="701" width="100" height="100" fill="white" stroke="#E2E8F0"/>
<rect x="601" y="701" width="100" height="100" fill="white" stroke="#E2E8F0"/>
<rect x="701" y="701" width="100" height="100" fill="white" stroke="#E2E8F0"/>
<rect x="801" y="701" width="100" height="100" fill="white" stroke="#E2E8F0"/>
<rect x="901" y="701" width="100" height="100" fill="white" stroke="#E2E8F0"/>
<rect x="1001" y="701" width="100" height="100" fill="white" stroke="#E2E8F0"/>
<rect x="1101" y="701" width="100" height="100" fill="white" stroke="#E2E8F0"/>
<rect x="1201" y="701" width="100" height="100" fill="white" stroke="#E2E8F0"/>
<rect x="1301" y="701" width="100" height="100" fill="white" stroke="#E2E8F0"/>
<rect x="1401" y="701" width="100" height="100" fill="white" stroke="#E2E8F0"/>
<rect x="1501" y="701" width="100" height="100" fill="#F1F5F9" stroke="#E2E8F0"/>
<rect x="1601" y="701" width="100" height="100" fill="white" stroke="#E2E8F0"/>
<rect x="1701" y="701" width="100" height="100" fill="white" stroke="#E2E8F0"/>
<rect x="1" y="801" width="100" height="100" fill="white" stroke="#E2E8F0"/>
<rect x="101" y="801" width="100" height="100" fill="white" stroke="#E2E8F0"/>
<rect x="201" y="801" width="100" height="100" fill="white" stroke="#E2E8F0"/>
<rect x="301" y="801" width="100" height="100" fill="white" stroke="#E2E8F0"/>
<rect x="401" y="801" width="100" height="100" fill="white" stroke="#E2E8F0"/>
<rect x="501" y="801" width="100" height="100" fill="white" stroke="#E2E8F0"/>
<rect x="601" y="801" width="100" height="100" fill="white" stroke="#E2E8F0"/>
<rect x="701" y="801" width="100" height="100" fill="white" stroke="#E2E8F0"/>
<rect x="801" y="801" width="100" height="100" fill="white" stroke="#E2E8F0"/>
<rect x="901" y="801" width="100" height="100" fill="white" stroke="#E2E8F0"/>
<rect x="1001" y="801" width="100" height="100" fill="white" stroke="#E2E8F0"/>
<rect x="1101" y="801" width="100" height="100" fill="white" stroke="#E2E8F0"/>
<rect x="1201" y="801" width="100" height="100" fill="white" stroke="#E2E8F0"/>
<rect x="1301" y="801" width="100" height="100" fill="white" stroke="#E2E8F0"/>
<rect x="1401" y="801" width="100" height="100" fill="white" stroke="#E2E8F0"/>
<rect x="1501" y="801" width="100" height="100" fill="white" stroke="#E2E8F0"/>
<rect x="1601" y="801" width="100" height="100" fill="white" stroke="#E2E8F0"/>
<rect x="1701" y="801" width="100" height="100" fill="white" stroke="#E2E8F0"/>
<rect x="1" y="901" width="100" height="100" fill="white" stroke="#E2E8F0"/>
<rect x="101" y="901" width="100" height="100" fill="white" stroke="#E2E8F0"/>
<rect x="201" y="901" width="100" height="100" fill="white" stroke="#E2E8F0"/>
<rect x="301" y="901" width="100" height="100" fill="white" stroke="#E2E8F0"/>
<rect x="401" y="901" width="100" height="100" fill="white" stroke="#E2E8F0"/>
<rect x="501" y="901" width="100" height="100" fill="#F1F5F9" stroke="#E2E8F0"/>
<rect x="601" y="901" width="100" height="100" fill="white" stroke="#E2E8F0"/>
<rect x="701" y="901" width="100" height="100" fill="white" stroke="#E2E8F0"/>
<rect x="801" y="901" width="100" height="100" fill="white" stroke="#E2E8F0"/>
<rect x="901" y="901" width="100" height="100" fill="white" stroke="#E2E8F0"/>
<rect x="1001" y="901" width="100" height="100" fill="white" stroke="#E2E8F0"/>
<rect x="1101" y="901" width="100" height="100" fill="white" stroke="#E2E8F0"/>
<rect x="1201" y="901" width="100" height="100" fill="white" stroke="#E2E8F0"/>
<rect x="1301" y="901" width="100" height="100" fill="white" stroke="#E2E8F0"/>
<rect x="1401" y="901" width="100" height="100" fill="white" stroke="#E2E8F0"/>
<rect x="1501" y="901" width="100" height="100" fill="white" stroke="#E2E8F0"/>
<rect x="1601" y="901" width="100" height="100" fill="white" stroke="#E2E8F0"/>
<rect x="1701" y="901" width="100" height="100" fill="white" stroke="#E2E8F0"/>
<rect x="1" y="1001" width="100" height="100" fill="white" stroke="#E2E8F0"/>
<rect x="101" y="1001" width="100" height="100" fill="white" stroke="#E2E8F0"/>
<rect x="201" y="1001" width="100" height="100" fill="white" stroke="#E2E8F0"/>
<rect x="301" y="1001" width="100" height="100" fill="white" stroke="#E2E8F0"/>
<rect x="401" y="1001" width="100" height="100" fill="white" stroke="#E2E8F0"/>
<rect x="501" y="1001" width="100" height="100" fill="white" stroke="#E2E8F0"/>
<rect x="601" y="1001" width="100" height="100" fill="white" stroke="#E2E8F0"/>
<rect x="701" y="1001" width="100" height="100" fill="white" stroke="#E2E8F0"/>
<rect x="801" y="1001" width="100" height="100" fill="white" stroke="#E2E8F0"/>
<rect x="901" y="1001" width="100" height="100" fill="white" stroke="#E2E8F0"/>
<rect x="1001" y="1001" width="100" height="100" fill="white" stroke="#E2E8F0"/>
<rect x="1101" y="1001" width="100" height="100" fill="#F1F5F9" stroke="#E2E8F0"/>
<rect x="1201" y="1001" width="100" height="100" fill="#F1F5F9" stroke="#E2E8F0"/>
<rect x="1301" y="1001" width="100" height="100" fill="white" stroke="#E2E8F0"/>
<rect x="1401" y="1001" width="100" height="100" fill="white" stroke="#E2E8F0"/>
<rect x="1501" y="1001" width="100" height="100" fill="white" stroke="#E2E8F0"/>
<rect x="1601" y="1001" width="100" height="100" fill="white" stroke="#E2E8F0"/>
<rect x="1701" y="1001" width="100" height="100" fill="white" stroke="#E2E8F0"/>
<rect x="1" y="1101" width="100" height="100" fill="white" stroke="#E2E8F0"/>
<rect x="101" y="1101" width="100" height="100" fill="#F1F5F9" stroke="#E2E8F0"/>
<rect x="201" y="1101" width="100" height="100" fill="white" stroke="#E2E8F0"/>
<rect x="301" y="1101" width="100" height="100" fill="white" stroke="#E2E8F0"/>
<rect x="401" y="1101" width="100" height="100" fill="white" stroke="#E2E8F0"/>
<rect x="501" y="1101" width="100" height="100" fill="white" stroke="#E2E8F0"/>
<rect x="601" y="1101" width="100" height="100" fill="white" stroke="#E2E8F0"/>
<rect x="701" y="1101" width="100" height="100" fill="white" stroke="#E2E8F0"/>
<rect x="801" y="1101" width="100" height="100" fill="white" stroke="#E2E8F0"/>
<rect x="901" y="1101" width="100" height="100" fill="white" stroke="#E2E8F0"/>
<rect x="1001" y="1101" width="100" height="100" fill="white" stroke="#E2E8F0"/>
<rect x="1101" y="1101" width="100" height="100" fill="white" stroke="#E2E8F0"/>
<rect x="1201" y="1101" width="100" height="100" fill="white" stroke="#E2E8F0"/>
<rect x="1301" y="1101" width="100" height="100" fill="white" stroke="#E2E8F0"/>
<rect x="1401" y="1101" width="100" height="100" fill="white" stroke="#E2E8F0"/>
<rect x="1501" y="1101" width="100" height="100" fill="white" stroke="#E2E8F0"/>
<rect x="1601" y="1101" width="100" height="100" fill="white" stroke="#E2E8F0"/>
<rect x="1701" y="1101" width="100" height="100" fill="#F1F5F9" stroke="#E2E8F0"/>
<ellipse cx="901" cy="601" rx="900" ry="600" fill="url(#paint0_radial_8119_2)"/>
<defs>
<radialGradient id="paint0_radial_8119_2" cx="0" cy="0" r="1" gradientUnits="userSpaceOnUse" gradientTransform="translate(901 601) rotate(90) scale(600 900)">
<stop offset="0.370192" stop-color="white" stop-opacity="0.6"/>
<stop offset="1" stop-color="white" stop-opacity="0"/>
</radialGradient>
</defs>
</svg>
