<?xml version="1.0" encoding="UTF-8"?><svg id="Layer_2" xmlns="http://www.w3.org/2000/svg" viewBox="0 0 52.38 11.04"><defs><style>.cls-1{fill:#0b1a2f;}</style></defs><g id="Layer_1-2"><path class="cls-1" d="M13.41,5.44c0-1.86,1.37-3.24,3.21-3.24,1.27,0,2.36.62,2.85,1.83l-1.03.54c-.22-.67-.9-1.27-1.82-1.27-1.15,0-1.99.89-1.99,2.13s.88,2.14,1.99,2.14c.84,0,1.61-.44,1.92-1.34l1.02.48c-.48,1.34-1.63,1.97-2.94,1.97-1.87,0-3.21-1.38-3.21-3.24Z"/><path class="cls-1" d="M19.96,6.73c0-1.15.85-1.82,2.04-1.94l2.1-.22c-.01-.73-.54-1.31-1.46-1.31-.85,0-1.26.54-1.37,1.03l-1.07-.31c.28-1.08,1.16-1.77,2.43-1.77,1.8,0,2.64,1.2,2.64,2.43v3.89h-1.19v-1.9c0,1.31-.84,2.05-2.01,2.05-1.24,0-2.11-.8-2.11-1.95ZM22.32,7.69c1.27,0,1.78-.92,1.78-1.8v-.34l-1.83.19c-.73.08-1.1.42-1.1.98s.5.96,1.16.96Z"/><path class="cls-1" d="M26.36,2.36h1.2v2.23c.17-1.37.96-2.39,2.39-2.39,1.55,0,2.7,1.39,2.7,3.24s-1.13,3.24-2.7,3.24c-1.24,0-2.22-.86-2.39-2.28v4.64h-1.2V2.36ZM27.51,5.44c0,1.37.89,2.15,1.97,2.15s1.94-.86,1.94-2.15-.85-2.15-1.97-2.15-1.94.95-1.94,2.15Z"/><path class="cls-1" d="M33.86,6.86v-3.44h-1.08v-1.06h1.1V.97h1.18v1.39h1.83v1.06h-1.83v3.38c0,.48.25.66.62.66h1.1v1.07h-1.25c-.96,0-1.68-.5-1.68-1.67Z"/><path class="cls-1" d="M37.59.13h1.21v1.21h-1.21V.13ZM37.6,2.36h1.2v6.16h-1.2V2.36Z"/><path class="cls-1" d="M39.44,5.46c0-1.9,1.2-3.25,2.77-3.25,1.27,0,2.16.86,2.31,2.28V.13h1.2v8.4h-1.2v-2.22c-.16,1.37-.86,2.37-2.31,2.37-1.55,0-2.77-1.38-2.77-3.23ZM42.63,7.59c1.16,0,1.94-.94,1.94-2.13,0-1.37-.89-2.16-1.96-2.16s-1.96.88-1.96,2.16.85,2.13,1.97,2.13Z"/><path class="cls-1" d="M46.32,5.41c0-1.92,1.37-3.2,3.12-3.2,1.87,0,2.94,1.43,2.94,3.06,0,.24-.01.47-.04.61h-4.82c.16,1.08.9,1.75,1.93,1.75.77,0,1.42-.35,1.76-.91l.89.58c-.48.82-1.43,1.39-2.67,1.39-1.82,0-3.11-1.33-3.11-3.27ZM51.22,4.87c-.01-.88-.76-1.62-1.79-1.62s-1.72.68-1.9,1.62h3.68Z"/><polygon class="cls-1" points="3.62 7.26 3.62 9.67 2.41 9.67 2.41 8.47 1.21 8.47 1.21 7.26 3.62 7.26"/><polygon class="cls-1" points="9.66 7.26 9.66 8.47 8.45 8.47 8.45 9.67 7.25 9.67 7.25 7.26 9.66 7.26"/><polygon class="cls-1" points="9.66 2.43 9.66 3.63 7.25 3.63 7.25 1.22 8.45 1.22 8.45 2.43 9.66 2.43"/><polygon class="cls-1" points="3.62 1.22 3.62 3.63 1.21 3.63 1.21 2.43 2.41 2.43 2.41 1.22 3.62 1.22"/><rect class="cls-1" x="4.83" y="6.05" width="1.21" height="2.41"/><rect class="cls-1" x="6.04" y="4.84" width="2.41" height="1.21"/><rect class="cls-1" x="4.83" y="2.42" width="1.21" height="2.42"/><rect class="cls-1" x="2.42" y="4.84" width="2.41" height="1.21"/><rect class="cls-1" y="4.84" width="1.21" height="1.21"/><rect class="cls-1" x="4.83" y="9.67" width="1.21" height="1.21"/><rect class="cls-1" x="9.66" y="4.84" width="1.21" height="1.21"/><rect class="cls-1" x="4.83" width="1.21" height="1.21"/></g></svg>