<?xml version="1.0" encoding="UTF-8"?><svg id="Layer_2" xmlns="http://www.w3.org/2000/svg" viewBox="0 0 10.75 10.75"><defs><style>.cls-1{fill:#0b1a2f;}</style></defs><g id="Layer_1-2"><polygon class="cls-1" points="3.58 7.17 3.58 9.55 2.38 9.55 2.38 8.37 1.2 8.37 1.2 7.17 3.58 7.17"/><polygon class="cls-1" points="9.55 7.17 9.55 8.37 8.35 8.37 8.35 9.55 7.17 9.55 7.17 7.17 9.55 7.17"/><polygon class="cls-1" points="9.55 2.4 9.55 3.58 7.17 3.58 7.17 1.2 8.35 1.2 8.35 2.4 9.55 2.4"/><polygon class="cls-1" points="3.58 1.2 3.58 3.58 1.2 3.58 1.2 2.4 2.38 2.4 2.38 1.2 3.58 1.2"/><rect class="cls-1" x="4.77" y="5.98" width="1.2" height="2.38"/><rect class="cls-1" x="5.97" y="4.78" width="2.38" height="1.2"/><rect class="cls-1" x="4.77" y="2.39" width="1.2" height="2.39"/><rect class="cls-1" x="2.39" y="4.78" width="2.38" height="1.2"/><rect class="cls-1" y="4.78" width="1.2" height="1.2"/><rect class="cls-1" x="4.77" y="9.56" width="1.2" height="1.2"/><rect class="cls-1" x="9.55" y="4.78" width="1.2" height="1.2"/><rect class="cls-1" x="4.77" width="1.2" height="1.2"/></g></svg>