<?xml version="1.0" encoding="UTF-8"?><svg id="Layer_2" xmlns="http://www.w3.org/2000/svg" viewBox="0 0 156.4 32.98"><defs><style>.cls-1{fill:#0b1a2f;}</style></defs><g id="Layer_1-2"><path class="cls-1" d="M40.03,16.25c0-5.55,4.08-9.67,9.6-9.67,3.79,0,7.05,1.86,8.52,5.48l-3.08,1.61c-.64-2.01-2.69-3.8-5.44-3.8-3.44,0-5.94,2.65-5.94,6.37s2.61,6.38,5.94,6.38c2.51,0,4.8-1.33,5.73-4.01l3.04,1.43c-1.43,4.01-4.87,5.87-8.77,5.87-5.59,0-9.6-4.12-9.6-9.67Z"/><path class="cls-1" d="M59.6,20.08c0-3.44,2.54-5.44,6.09-5.8l6.27-.65c-.04-2.18-1.61-3.9-4.37-3.9-2.54,0-3.76,1.61-4.08,3.08l-3.19-.93c.82-3.22,3.47-5.3,7.27-5.3,5.37,0,7.88,3.58,7.88,7.27v11.6h-3.55v-5.66c0,3.9-2.51,6.12-6.02,6.12-3.69,0-6.3-2.4-6.3-5.84ZM66.65,22.95c3.8,0,5.3-2.76,5.3-5.37v-1l-5.48.57c-2.19.25-3.29,1.25-3.29,2.94s1.5,2.86,3.47,2.86Z"/><path class="cls-1" d="M78.69,7.05h3.58v6.66c.5-4.08,2.86-7.12,7.13-7.12,4.62,0,8.06,4.15,8.06,9.67s-3.37,9.67-8.06,9.67c-3.69,0-6.62-2.58-7.13-6.8v13.86h-3.58V7.05ZM82.13,16.25c0,4.08,2.65,6.41,5.87,6.41s5.8-2.58,5.8-6.41-2.54-6.41-5.87-6.41-5.8,2.83-5.8,6.41Z"/><path class="cls-1" d="M101.09,20.48v-10.28h-3.22v-3.15h3.29V2.9h3.51v4.15h5.48v3.15h-5.48v10.1c0,1.43.75,1.97,1.86,1.97h3.29v3.19h-3.72c-2.86,0-5.01-1.5-5.01-4.98Z"/><path class="cls-1" d="M112.25.39h3.61v3.61h-3.61V.39ZM112.27,7.05h3.58v18.41h-3.58V7.05Z"/><path class="cls-1" d="M117.75,16.29c0-5.66,3.58-9.7,8.27-9.7,3.8,0,6.45,2.58,6.91,6.8V.39h3.58v25.07h-3.58v-6.62c-.47,4.08-2.58,7.09-6.91,7.09-4.62,0-8.27-4.12-8.27-9.63ZM127.28,22.66c3.47,0,5.8-2.79,5.8-6.37,0-4.08-2.65-6.45-5.84-6.45s-5.84,2.61-5.84,6.45,2.54,6.37,5.87,6.37Z"/><path class="cls-1" d="M138.31,16.15c0-5.73,4.08-9.56,9.31-9.56,5.59,0,8.77,4.26,8.77,9.13,0,.72-.03,1.4-.11,1.83h-14.4c.47,3.22,2.69,5.23,5.77,5.23,2.29,0,4.23-1.04,5.26-2.72l2.65,1.72c-1.43,2.43-4.26,4.15-7.99,4.15-5.44,0-9.28-3.97-9.28-9.78ZM152.93,14.53c-.04-2.61-2.26-4.83-5.34-4.83s-5.12,2.04-5.66,4.83h10.99Z"/><polygon class="cls-1" points="10.81 21.67 10.81 28.86 7.2 28.86 7.2 25.28 3.62 25.28 3.62 21.67 10.81 21.67"/><polygon class="cls-1" points="28.85 21.67 28.85 25.28 25.24 25.28 25.24 28.86 21.65 28.86 21.65 21.67 28.85 21.67"/><polygon class="cls-1" points="28.85 7.25 28.85 10.83 21.65 10.83 21.65 3.63 25.24 3.63 25.24 7.25 28.85 7.25"/><polygon class="cls-1" points="10.81 3.63 10.81 10.83 3.62 10.83 3.62 7.25 7.2 7.25 7.2 3.63 10.81 3.63"/><rect class="cls-1" x="14.42" y="18.06" width="3.61" height="7.2"/><rect class="cls-1" x="18.03" y="14.45" width="7.2" height="3.61"/><rect class="cls-1" x="14.42" y="7.23" width="3.61" height="7.23"/><rect class="cls-1" x="7.23" y="14.45" width="7.2" height="3.61"/><rect class="cls-1" y="14.45" width="3.61" height="3.61"/><rect class="cls-1" x="14.42" y="28.87" width="3.61" height="3.61"/><rect class="cls-1" x="28.85" y="14.45" width="3.61" height="3.61"/><rect class="cls-1" x="14.42" width="3.61" height="3.61"/></g></svg>